<svg width="48" height="48" viewBox="0 0 48 48" fill="none" xmlns="http://www.w3.org/2000/svg">
    <path d="M17.5997 23.1578C17.8523 21.7263 18.7786 20.5473 20.0418 19.9578L18.3575 12.5473C16.1681 12.4631 14.4839 10.6105 14.4839 8.42099C14.4839 6.14731 16.3365 4.29468 18.6102 4.29468C20.8839 4.29468 22.7365 6.14731 22.7365 8.42099C22.7365 10.021 21.8102 11.3684 20.547 12.042L22.2312 19.4526C23.4944 19.4526 24.5891 20.042 25.4312 20.8842L28.7997 18.6947C28.7154 18.442 28.7154 18.1052 28.7154 17.8526C28.7154 15.9157 30.2312 14.3999 32.1681 14.3999C34.1049 14.3999 35.6207 15.9157 35.6207 17.8526C35.6207 19.7894 34.1049 21.3052 32.1681 21.3052C31.326 21.3052 30.6523 21.0526 30.0628 20.5473L26.526 22.7368C26.6102 23.1578 26.6944 23.5789 26.6944 23.9999C26.6944 24.2526 26.6944 24.5052 26.6102 24.7578L34.8628 27.3684C35.7049 26.021 37.1365 25.0947 38.8207 25.0947C41.347 25.0947 43.4523 27.1999 43.4523 29.7263C43.4523 32.2526 41.347 34.3578 38.8207 34.3578C36.2944 34.3578 34.1891 32.2526 34.1891 29.7263V29.4736L25.6839 26.7789C24.8418 27.8736 23.4944 28.6315 21.9786 28.6315C21.4733 28.6315 20.9681 28.5473 20.547 28.3789L18.0207 32.3368C19.2839 33.5157 20.126 35.1999 20.126 37.1368C20.126 40.7578 17.1786 43.7052 13.5575 43.7052C9.93649 43.7052 6.98912 40.7578 6.98912 37.1368C6.98912 33.5157 9.93649 30.5684 13.5575 30.5684C14.4839 30.5684 15.4102 30.7368 16.1681 31.1578L18.6944 27.2842C18.1891 26.7789 17.8523 26.1052 17.5997 25.4315L14.0628 25.2631C13.4733 27.0315 11.7891 28.3789 9.76807 28.3789C7.24176 28.3789 5.2207 26.3578 5.2207 23.8315C5.2207 21.3052 7.24176 19.2842 9.76807 19.2842C12.0418 19.2842 13.8944 20.8842 14.2312 23.0736L17.5997 23.1578Z"
          fill="#121212"/>
</svg>
